# xmcd
#
# Track frame offsets: 
#        150
#        26537
#        44482
#        58995
#        80550
#        93492
#        108640
#        126720
#        143437
#        159327
#        177517
#        188867
#        209142
#        228110
#        240225
#        260590
#        273390
#
# Disc length: 3927 seconds
#
# Revision: 2
# Processed by: cddbd v1.5.2PL0 Copyright (c) Steve Scherf et al.
# Submitted via: ExactAudioCopy v0.95b4
#
DISCID=f90f5511
DTITLE=Alligator Records - Living Chicago Blues Vol. 1
DYEAR=1993
DGENRE=
TTITLE0=Your Turn To Cry
TTITLE1=Serves Me Right To Suffer
TTITLE2=Ain't That Just Like A Woman
TTITLE3=Feel Like Breaking Up Somebody's Home
TTITLE4=It' Alright
TTITLE5=Out Of Bad Luck
TTITLE6=Stoop Down Baby
TTITLE7=Sitting On Top Of The World
TTITLE8=My Baby's So Ugly
TTITLE9=Come Home, Darling
TTITLE10=Blues Won't Let Me Be
TTITLE11=One Room Country Shack
TTITLE12=Linda Lu
TTITLE13=Too Late
TTITLE14=Laundromat Blues
TTITLE15=One Day
TTITLE16=Woman In Trouble
EXTD=
EXTT0=
EXTT1=
EXTT2=
EXTT3=
EXTT4=
EXTT5=
EXTT6=
EXTT7=
EXTT8=
EXTT9=
EXTT10=
EXTT11=
EXTT12=
EXTT13=
EXTT14=
EXTT15=
EXTT16=
PLAYORDER=
